<svg width="971" height="910" viewBox="0 0 971 910" fill="none" xmlns="http://www.w3.org/2000/svg">
<path d="M971 910H0V0H971V910ZM845 847C835.059 847 827 855.059 827 865C827 874.941 835.059 883 845 883C854.941 883 863 874.941 863 865C863 855.059 854.941 847 845 847ZM894 847C884.059 847 876 855.059 876 865C876 874.941 884.059 883 894 883C903.941 883 912 874.941 912 865C912 855.059 903.941 847 894 847ZM333 823H638V769H333V823ZM903 782L908 809H951L946 782H903ZM186 101C136.847 101 97 140.847 97 190V600C97 649.153 136.847 689 186 689H785C834.153 689 874 649.153 874 600V190C874 140.847 834.153 101 785 101H186Z" fill="black" fill-opacity="0.56"/>
</svg>
